<svg height="12" viewBox="0 0 12 12" width="12" xmlns="http://www.w3.org/2000/svg"><g fill="#666"><path d="m12.6146703 5h-12.65791202c-.52840301 0-.95675828.38375593-.95675828.85714286s.42835527.85714285.95675828.85714285h12.65791202c.528403 0 .9567583-.38375592.9567583-.85714285s-.4283553-.85714286-.9567583-.85714286z" transform="matrix(.70710678 .70710678 -.70710678 .70710678 5.982669 -2.729154)"/><path d="m12.6146703 5h-12.65791202c-.52840301 0-.95675828.38375593-.95675828.85714286s.42835527.85714285.95675828.85714285h12.65791202c.528403 0 .9567583-.38375592.9567583-.85714285s-.4283553-.85714286-.9567583-.85714286z" transform="matrix(-.70710678 .70710678 .70710678 .70710678 6.588759 -2.729154)"/></g></svg>