<svg xmlns="http://www.w3.org/2000/svg" width="17pt" height="17pt" viewBox="0 0 17 17"><path d="M6.332 1.445a4.896 4.896 0 0 0-4.887 4.887 4.893 4.893 0 0 0 4.887 4.883 4.85 4.85 0 0 0 2.938-.992c.015.023.03.039.05.058l5.063 5.067a.686.686 0 0 0 .664.183.676.676 0 0 0 .484-.484.686.686 0 0 0-.183-.664L10.28 9.32c-.02-.02-.035-.035-.058-.05a4.85 4.85 0 0 0 .992-2.938 4.893 4.893 0 0 0-4.883-4.887zm0 1.223a3.65 3.65 0 0 1 2.594 1.07 3.65 3.65 0 0 1 1.07 2.594 3.654 3.654 0 0 1-3.664 3.664 3.654 3.654 0 0 1-3.664-3.664 3.65 3.65 0 0 1 1.07-2.594 3.65 3.65 0 0 1 2.594-1.07zm0 0" fill="#265378"/></svg>
