<svg height="18" viewBox="0 0 18 18" width="18" xmlns="http://www.w3.org/2000/svg"><path d="m622.716699 776.622062-8.0969 8.092876c-.183274.183187-.183274.479812 0 .662812.091543.0915.211788.13725.331657.13725.120245 0 .239926-.04575.331657-.13725l8.096713-8.092875c.183274-.183187.183274-.479813 0-.662813-.183275-.183-.48004-.183-.663127 0zm2.650256-1.986c-1.700681-1.700062-3.962065-2.636062-6.366955-2.636062-2.405265 0-4.666274.936-6.366955 2.636062-3.510727 3.509063-3.510727 9.219001 0 12.728063 1.700681 1.699875 3.96169 2.635875 6.366955 2.635875 2.40489 0 4.666274-.936 6.366955-2.636062 3.510727-3.508875 3.510727-9.219001 0-12.727876zm-.663127 12.065063c-1.523784 1.522688-3.549557 2.361375-5.703828 2.361375-2.154646 0-4.180419-.838687-5.703828-2.361375-3.145116-3.143813-3.145116-8.258625 0-11.402437 1.523409-1.522501 3.549182-2.361188 5.703828-2.361188 2.154271 0 4.180044.838687 5.703828 2.361375 3.144741 3.143625 3.144741 8.258625 0 11.40225zm-3.265172-4.658062c-.372552 0-.722968.144937-.986343.408374-.26375.263438-.408943.613501-.408943.986251s.145006.722625.408943.986062c.263375.26325.613604.408562.986343.408562s.723155-.145124.986717-.408562c.544008-.543562.544008-1.428375 0-1.972125-.263562-.263437-.61379-.408562-.986717-.408562zm.323591 1.717874c-.172582.1725-.474037.172688-.646619-.000187-.086479-.08625-.134126-.200812-.134126-.323062s.047647-.236813.134126-.32325c.086478-.086438.201095-.133875.323028-.133875.122308 0 .237112.047437.323591.133875.178022.178312.178022.468187 0 .646499zm-5.201278-3.804c.372927 0 .723155-.144937.986718-.408562.263374-.26325.408568-.6135.408568-.986063 0-.372562-.145006-.722625-.408568-.986062-.263563-.263438-.613979-.408562-.986718-.408562s-.722968.145124-.986342.408562c-.263375.263437-.408944.6135-.408569.986062 0 .372375.145006.722625.408193.986063.263938.263437.614166.408562.986718.408562zm-.323216-1.717874c.086104-.086251.201096-.133875.323216-.133875.122308 0 .237112.047624.323591.133875.086103.086249.133751.200999.133751.323249s-.047648.237001-.134126.32325c-.172582.172875-.473287.172875-.646244 0-.086479-.086249-.133751-.201-.133751-.32325-.000375-.122062.047085-.237.133563-.323249z" transform="translate(-610 -772)"/></svg>