<svg width="16" height="16" viewBox="0 0 16 16" fill="none" xmlns="http://www.w3.org/2000/svg">
<path d="M6 6.5C5.72386 6.5 5.5 6.72386 5.5 7C5.5 7.27614 5.72386 7.5 6 7.5V6.5ZM10 7.5C10.2761 7.5 10.5 7.27614 10.5 7C10.5 6.72386 10.2761 6.5 10 6.5V7.5ZM6 7.5L10 7.5V6.5L6 6.5V7.5Z" fill="currentColor"/>
<line x1="3.5" y1="2" x2="12.5" y2="2" stroke="currentColor" stroke-linecap="round"/>
<path d="M2 6.1C2 5.53995 2 5.25992 2.10899 5.04601C2.20487 4.85785 2.35785 4.70487 2.54601 4.60899C2.75992 4.5 3.03995 4.5 3.6 4.5H12.4C12.9601 4.5 13.2401 4.5 13.454 4.60899C13.6422 4.70487 13.7951 4.85785 13.891 5.04601C14 5.25992 14 5.53995 14 6.1V7.2V11.9C14 12.4601 14 12.7401 13.891 12.954C13.7951 13.1422 13.6422 13.2951 13.454 13.391C13.2401 13.5 12.9601 13.5 12.4 13.5H3.6C3.03995 13.5 2.75992 13.5 2.54601 13.391C2.35785 13.2951 2.20487 13.1422 2.10899 12.954C2 12.7401 2 12.4601 2 11.9V7.2V6.1Z" stroke="currentColor" stroke-linejoin="round"/>
</svg>
