<svg fill="none" height="24" viewBox="0 0 24 24" width="24" xmlns="http://www.w3.org/2000/svg" aria-hidden="true"><g stroke="currentColor" stroke-linecap="round" stroke-linejoin="round"><path d="m18.4 7h-12.8c-.88366 0-1.6.70355-1.6 1.57143v7.85717c0 .8678.71634 1.5714 1.6 1.5714h12.8c.8837 0 1.6-.7036 1.6-1.5714v-7.85717c0-.86788-.7163-1.57143-1.6-1.57143z"/><path d="m15 7v-1.33333c0-.44203-.158-.86595-.4393-1.17851-.2813-.31257-.6629-.48816-1.0607-.48816h-3c-.3978 0-.77936.17559-1.06066.48816-.2813.31256-.43934.73648-.43934 1.17851v1.33333"/></g></svg>